<?xml version="1.0" encoding="UTF-8" standalone="no"?>
<!DOCTYPE svg PUBLIC "-//W3C//DTD SVG 1.1//EN" "http://www.w3.org/Graphics/SVG/1.1/DTD/svg11.dtd">
<svg width="100%" height="100%" viewBox="0 0 135 42" version="1.1" xmlns="http://www.w3.org/2000/svg" xmlns:xlink="http://www.w3.org/1999/xlink" xml:space="preserve" xmlns:serif="http://www.serif.com/" style="fill-rule:evenodd;clip-rule:evenodd;stroke-linejoin:round;stroke-miterlimit:2;">
    <g id="Mesa-de-trabajo1" serif:id="Mesa de trabajo1" transform="matrix(0.983438,0,0,0.726361,-21.3324,-12.1544)">
        <rect x="21.692" y="16.733" width="137.162" height="57.18" style="fill:none;"/>
        <g transform="matrix(1.01684,0,0,1.37673,0.337988,-21.73)">
            <path d="M44.5,32C42.202,32 39.926,32.453 37.803,33.332C35.68,34.212 33.751,35.501 32.126,37.126C30.501,38.751 29.212,40.68 28.332,42.803C27.453,44.926 27,47.202 27,49.5C27,51.798 27.453,54.074 28.332,56.197C29.212,58.32 30.501,60.249 32.126,61.874C33.751,63.499 35.68,64.788 37.803,65.668C39.926,66.547 42.202,67 44.5,67L44.5,58.25C43.351,58.25 42.213,58.024 41.152,57.584C40.09,57.144 39.125,56.5 38.313,55.687C37.5,54.875 36.856,53.91 36.416,52.849C35.976,51.787 35.75,50.649 35.75,49.5C35.75,48.351 35.976,47.213 36.416,46.152C36.856,45.09 37.5,44.125 38.313,43.313C39.125,42.5 40.09,41.856 41.152,41.416C42.213,40.976 43.351,40.75 44.5,40.75L44.5,32Z" style="fill:rgb(15,82,255);fill-rule:nonzero;"/>
        </g>
        <g transform="matrix(1.01684,0,0,1.37673,0.337988,-21.73)">
            <circle cx="44.5" cy="49.5" r="5.833" style="fill:rgb(15,82,255);"/>
        </g>
        <g transform="matrix(1.01684,0,0,1.37673,0.337988,-21.73)">
            <path d="M27,49.5C27,51.798 27.453,54.074 28.332,56.197C29.212,58.32 30.501,60.249 32.126,61.874C33.751,63.499 35.68,64.788 37.803,65.668C39.926,66.547 42.202,67 44.5,67C46.798,67 49.074,66.547 51.197,65.668C53.32,64.788 55.249,63.499 56.874,61.874C58.499,60.249 59.788,58.32 60.668,56.197C61.547,54.074 62,51.798 62,49.5L53.25,49.5C53.25,50.649 53.024,51.787 52.584,52.849C52.144,53.91 51.5,54.875 50.687,55.687C49.875,56.5 48.91,57.144 47.849,57.584C46.787,58.024 45.649,58.25 44.5,58.25C43.351,58.25 42.213,58.024 41.152,57.584C40.09,57.144 39.125,56.5 38.313,55.687C37.5,54.875 36.856,53.91 36.416,52.849C35.976,51.787 35.75,50.649 35.75,49.5L27,49.5Z" style="fill:rgb(91,208,244);fill-rule:nonzero;"/>
        </g>
        <g transform="matrix(1.01684,0,0,1.37673,0.337988,-21.73)">
            <path d="M50.333,49.5C50.333,47.953 49.719,46.469 48.625,45.375C47.531,44.281 46.047,43.667 44.5,43.667C42.953,43.667 41.469,44.281 40.375,45.375C39.281,46.469 38.667,47.953 38.667,49.5L50.333,49.5Z" style="fill:rgb(91,208,244);fill-rule:nonzero;"/>
        </g>
        <g transform="matrix(1.01684,0,0,1.37673,0.337988,-21.73)">
            <rect x="68.966" y="42.925" width="2.174" height="12.075" style="fill:rgb(15,82,255);fill-rule:nonzero;"/>
        </g>
        <g transform="matrix(1.01684,0,0,1.37673,0.337988,-21.73)">
            <path d="M72.559,50.722C72.559,53.517 74.491,55.242 77.044,55.242C79.597,55.242 81.529,53.517 81.529,50.722C81.529,47.928 79.597,46.203 77.044,46.203C74.491,46.203 72.559,47.928 72.559,50.722ZM74.732,50.722C74.732,49.066 75.698,48.1 77.044,48.1C78.389,48.1 79.355,49.066 79.355,50.722C79.355,52.378 78.389,53.344 77.044,53.344C75.698,53.344 74.732,52.378 74.732,50.722Z" style="fill:rgb(15,82,255);fill-rule:nonzero;"/>
        </g>
        <g transform="matrix(1.01684,0,0,1.37673,0.337988,-21.73)">
            <path d="M89.296,46.444L89.296,47.6L89.124,47.6C88.606,46.858 87.778,46.203 86.295,46.203C84.259,46.203 82.431,47.928 82.431,50.584C82.431,53.24 84.259,54.966 86.295,54.966C87.778,54.966 88.606,54.293 89.089,53.62L89.262,53.62L89.262,54.448C89.262,56.104 88.296,56.863 86.881,56.863C85.467,56.863 84.742,56.104 84.449,55.121L82.5,55.966C82.948,57.26 84.259,58.692 86.915,58.692C89.641,58.692 91.435,57.26 91.435,54.5L91.435,46.444L89.296,46.444ZM86.95,53.103C85.605,53.103 84.604,52.137 84.604,50.584C84.604,49.032 85.605,48.066 86.95,48.066C88.296,48.066 89.296,49.032 89.296,50.584C89.296,52.137 88.296,53.103 86.95,53.103Z" style="fill:rgb(15,82,255);fill-rule:nonzero;"/>
        </g>
        <g transform="matrix(1.01684,0,0,1.37673,0.337988,-21.73)">
            <path d="M92.841,50.722C92.841,53.517 94.773,55.242 97.326,55.242C99.879,55.242 101.811,53.517 101.811,50.722C101.811,47.928 99.879,46.203 97.326,46.203C94.773,46.203 92.841,47.928 92.841,50.722ZM95.015,50.722C95.015,49.066 95.981,48.1 97.326,48.1C98.672,48.1 99.638,49.066 99.638,50.722C99.638,52.378 98.672,53.344 97.326,53.344C95.981,53.344 95.015,52.378 95.015,50.722Z" style="fill:rgb(15,82,255);fill-rule:nonzero;"/>
        </g>
        <g transform="matrix(1.01684,0,0,1.37673,0.337988,-21.73)">
            <path d="M103.517,43.96C103.517,44.84 104.19,45.444 105.053,45.444C105.915,45.444 106.588,44.84 106.588,43.96C106.588,43.08 105.915,42.477 105.053,42.477C104.19,42.477 103.517,43.08 103.517,43.96ZM106.139,46.444L103.966,46.444L103.966,55L106.139,55L106.139,46.444Z" style="fill:rgb(91,208,244);fill-rule:nonzero;"/>
        </g>
        <g transform="matrix(1.01684,0,0,1.37673,0.337988,-21.73)">
            <path d="M108.076,58.45L110.25,58.45L110.25,53.896L110.422,53.896C110.905,54.586 111.733,55.242 113.217,55.242C115.252,55.242 117.081,53.517 117.081,50.722C117.081,47.928 115.252,46.203 113.217,46.203C111.733,46.203 110.905,46.858 110.388,47.6L110.215,47.6L110.215,46.444L108.076,46.444L108.076,58.45ZM112.561,53.379C111.216,53.379 110.215,52.413 110.215,50.722C110.215,49.032 111.216,48.066 112.561,48.066C113.907,48.066 114.907,49.032 114.907,50.722C114.907,52.413 113.907,53.379 112.561,53.379Z" style="fill:rgb(91,208,244);fill-rule:nonzero;"/>
        </g>
        <g transform="matrix(1.01684,0,0,1.37673,0.337988,-21.73)">
            <path d="M118.349,48.842C118.349,50.532 119.763,51.153 121.557,51.498L122.006,51.585C123.075,51.792 123.558,52.05 123.558,52.602C123.558,53.154 123.075,53.586 122.075,53.586C121.074,53.586 120.264,53.172 120.039,51.929L118.038,52.447C118.332,54.241 119.832,55.242 122.075,55.242C124.248,55.242 125.663,54.224 125.663,52.43C125.663,50.636 124.214,50.153 122.282,49.773L121.833,49.687C120.936,49.515 120.453,49.273 120.453,48.704C120.453,48.186 120.902,47.859 121.73,47.859C122.558,47.859 123.144,48.204 123.351,49.135L125.318,48.531C124.904,47.151 123.645,46.203 121.73,46.203C119.694,46.203 118.349,47.151 118.349,48.842Z" style="fill:rgb(91,208,244);fill-rule:nonzero;"/>
        </g>
        <g transform="matrix(1.01684,0,0,1.37673,0.337988,-21.73)">
            <path d="M135.426,55L135.426,46.444L133.253,46.444L133.253,50.86C133.253,52.447 132.477,53.379 131.148,53.379C129.975,53.379 129.32,52.74 129.32,51.447L129.32,46.444L127.146,46.444L127.146,51.55C127.146,53.672 128.475,55.138 130.476,55.138C132.045,55.138 132.77,54.448 133.115,53.724L133.287,53.724L133.287,55L135.426,55Z" style="fill:rgb(91,208,244);fill-rule:nonzero;"/>
        </g>
        <g transform="matrix(1.01684,0,0,1.37673,0.337988,-21.73)">
            <path d="M137.354,46.444L137.354,55L139.528,55L139.528,49.894C139.528,48.721 140.08,48.066 141.08,48.066C141.943,48.066 142.46,48.548 142.46,49.48L142.46,55L144.634,55L144.634,49.894C144.634,48.721 145.186,48.066 146.186,48.066C147.049,48.066 147.566,48.548 147.566,49.48L147.566,55L149.74,55L149.74,49.377C149.74,47.307 148.463,46.306 146.876,46.306C145.479,46.306 144.841,46.927 144.427,47.652L144.254,47.652C143.857,46.841 143.15,46.306 141.908,46.306C140.666,46.306 139.993,46.858 139.666,47.514L139.493,47.514L139.493,46.444L137.354,46.444Z" style="fill:rgb(91,208,244);fill-rule:nonzero;"/>
        </g>
    </g>
</svg>
